# xmcd CD database file
#
# Track frame offsets:
#	150
#	5014
#	27138
#	59214
#	80978
#	134060
#	192688
#	229900
#	279848
#
# Disc length: 4222 seconds
#
# Revision: 2
# Processed by: cddbd v1.5.2PL0 Copyright (c) Steve Scherf et al.
# Submitted via: CDex 1.51
#
DISCID=8a107c09
DTITLE=Miles Davis - The Complete Miles Davis at Montreux 1973-1991 [CD13 - July 7, 1988, Part 1)
DYEAR=1900
DGENRE=Jazz
TTITLE0=In A Silent Way
TTITLE1=Intruder
TTITLE2=New Blues
TTITLE3=Perfect Way
TTITLE4=The Senate - Me and U
TTITLE5=Human Nature
TTITLE6=Wrinkle
TTITLE7=Tutu
TTITLE8=Time After Time
EXTD=
EXTT0=
EXTT1=
EXTT2=
EXTT3=
EXTT4=
EXTT5=
EXTT6=
EXTT7=
EXTT8=
PLAYORDER=
